<svg id="visual" viewBox="0 0 900 600" width="100%" height="100%" xmlns="http://www.w3.org/2000/svg" xmlns:xlink="http://www.w3.org/1999/xlink" version="1.1"><g stroke-width="1" stroke-linejoin="bevel"><path d="M485.9 247L509.9 272L585.7 240Z" fill="#162933" stroke="#162933"></path><path d="M509.9 272L545.7 277L585.7 240Z" fill="#102430" stroke="#102430"></path><path d="M585.7 240L493.9 177L485.9 247Z" fill="#162933" stroke="#162933"></path><path d="M585.7 240L563.7 149L493.9 177Z" fill="#071a28" stroke="#071a28"></path><path d="M649.5 281L636.5 233L585.7 240Z" fill="#102430" stroke="#102430"></path><path d="M585.7 240L636.5 233L563.7 149Z" fill="#162933" stroke="#162933"></path><path d="M545.7 277L649.5 281L585.7 240Z" fill="#102430" stroke="#102430"></path><path d="M410.1 172L402.1 241L485.9 247Z" fill="#001122" stroke="#001122"></path><path d="M485.9 247L472.9 368L509.9 272Z" fill="#162933" stroke="#162933"></path><path d="M481.9 84L410.1 172L493.9 177Z" fill="#132731" stroke="#132731"></path><path d="M493.9 177L410.1 172L485.9 247Z" fill="#091c2a" stroke="#091c2a"></path><path d="M717.4 168L661.5 155L636.5 233Z" fill="#102430" stroke="#102430"></path><path d="M636.5 233L661.5 155L563.7 149Z" fill="#001122" stroke="#001122"></path><path d="M472.9 368L595.7 358L545.7 277Z" fill="#021424" stroke="#021424"></path><path d="M545.7 277L595.7 358L649.5 281Z" fill="#0e222e" stroke="#0e222e"></path><path d="M472.9 368L545.7 277L509.9 272Z" fill="#162933" stroke="#162933"></path><path d="M578.7 60L481.9 84L563.7 149Z" fill="#021424" stroke="#021424"></path><path d="M563.7 149L481.9 84L493.9 177Z" fill="#0e222e" stroke="#0e222e"></path><path d="M384.1 322L472.9 368L485.9 247Z" fill="#162933" stroke="#162933"></path><path d="M629.5 73L578.7 60L563.7 149Z" fill="#162933" stroke="#162933"></path><path d="M661.5 155L629.5 73L563.7 149Z" fill="#162933" stroke="#162933"></path><path d="M402.1 241L384.1 322L485.9 247Z" fill="#102430" stroke="#102430"></path><path d="M324.3 239L384.1 322L402.1 241Z" fill="#162933" stroke="#162933"></path><path d="M735.4 234L717.4 168L636.5 233Z" fill="#0e222e" stroke="#0e222e"></path><path d="M661.5 155L758.4 69L629.5 73Z" fill="#041726" stroke="#041726"></path><path d="M756.4 286L735.4 234L649.5 281Z" fill="#001122" stroke="#001122"></path><path d="M649.5 281L735.4 234L636.5 233Z" fill="#091c2a" stroke="#091c2a"></path><path d="M314.3 157L324.3 239L410.1 172Z" fill="#132731" stroke="#132731"></path><path d="M410.1 172L324.3 239L402.1 241Z" fill="#102430" stroke="#102430"></path><path d="M585.7 444L655.5 399L595.7 358Z" fill="#162933" stroke="#162933"></path><path d="M595.7 358L655.5 399L649.5 281Z" fill="#041726" stroke="#041726"></path><path d="M476.9 0L381.1 65L481.9 84Z" fill="#071a28" stroke="#071a28"></path><path d="M481.9 84L381.1 65L410.1 172Z" fill="#192c35" stroke="#192c35"></path><path d="M384.1 322L388.1 391L472.9 368Z" fill="#0b1f2c" stroke="#0b1f2c"></path><path d="M472.9 368L585.7 444L595.7 358Z" fill="#021424" stroke="#021424"></path><path d="M331.3 387L388.1 391L384.1 322Z" fill="#071a28" stroke="#071a28"></path><path d="M484.9 448L585.7 444L472.9 368Z" fill="#041726" stroke="#041726"></path><path d="M629.5 73L576.7 0L578.7 60Z" fill="#001122" stroke="#001122"></path><path d="M578.7 60L476.9 0L481.9 84Z" fill="#071a28" stroke="#071a28"></path><path d="M661.5 0L576.7 0L629.5 73Z" fill="#162933" stroke="#162933"></path><path d="M391.1 440L484.9 448L472.9 368Z" fill="#162933" stroke="#162933"></path><path d="M722.4 363L756.4 286L649.5 281Z" fill="#0b1f2c" stroke="#0b1f2c"></path><path d="M735.4 234L792.2 166L717.4 168Z" fill="#0b1f2c" stroke="#0b1f2c"></path><path d="M350.3 82L314.3 157L410.1 172Z" fill="#001122" stroke="#001122"></path><path d="M576.7 0L476.9 0L578.7 60Z" fill="#041726" stroke="#041726"></path><path d="M307.3 0L350.3 82L381.1 65Z" fill="#132731" stroke="#132731"></path><path d="M381.1 65L350.3 82L410.1 172Z" fill="#0b1f2c" stroke="#0b1f2c"></path><path d="M655.5 399L722.4 363L649.5 281Z" fill="#041726" stroke="#041726"></path><path d="M669.5 430L722.4 363L655.5 399Z" fill="#132731" stroke="#132731"></path><path d="M268.5 297L312.3 299L324.3 239Z" fill="#021424" stroke="#021424"></path><path d="M324.3 239L312.3 299L384.1 322Z" fill="#001122" stroke="#001122"></path><path d="M585.7 444L669.5 430L655.5 399Z" fill="#041726" stroke="#041726"></path><path d="M758.4 69L661.5 0L629.5 73Z" fill="#091c2a" stroke="#091c2a"></path><path d="M328.3 426L391.1 440L388.1 391Z" fill="#0b1f2c" stroke="#0b1f2c"></path><path d="M388.1 391L391.1 440L472.9 368Z" fill="#162933" stroke="#162933"></path><path d="M312.3 299L331.3 387L384.1 322Z" fill="#192c35" stroke="#192c35"></path><path d="M790.2 299L797.2 221L756.4 286Z" fill="#132731" stroke="#132731"></path><path d="M756.4 286L797.2 221L735.4 234Z" fill="#071a28" stroke="#071a28"></path><path d="M717.4 168L758.4 69L661.5 155Z" fill="#021424" stroke="#021424"></path><path d="M797.2 221L792.2 166L735.4 234Z" fill="#071a28" stroke="#071a28"></path><path d="M829.2 370L790.2 299L722.4 363Z" fill="#071a28" stroke="#071a28"></path><path d="M722.4 363L790.2 299L756.4 286Z" fill="#041726" stroke="#041726"></path><path d="M476.9 0L384.1 0L381.1 65Z" fill="#041726" stroke="#041726"></path><path d="M350.3 82L268.5 131L314.3 157Z" fill="#192c35" stroke="#192c35"></path><path d="M792.2 166L758.4 69L717.4 168Z" fill="#0b1f2c" stroke="#0b1f2c"></path><path d="M217.5 250L268.5 297L324.3 239Z" fill="#021424" stroke="#021424"></path><path d="M312.3 299L268.5 297L331.3 387Z" fill="#132731" stroke="#132731"></path><path d="M244.5 85L268.5 131L350.3 82Z" fill="#102430" stroke="#102430"></path><path d="M314.3 157L217.5 250L324.3 239Z" fill="#001122" stroke="#001122"></path><path d="M504.9 524L562.7 509L484.9 448Z" fill="#102430" stroke="#102430"></path><path d="M484.9 448L562.7 509L585.7 444Z" fill="#021424" stroke="#021424"></path><path d="M585.7 444L652.5 520L669.5 430Z" fill="#091c2a" stroke="#091c2a"></path><path d="M331.3 387L328.3 426L388.1 391Z" fill="#102430" stroke="#102430"></path><path d="M382.1 536L504.9 524L484.9 448Z" fill="#021424" stroke="#021424"></path><path d="M229.5 347L328.3 426L331.3 387Z" fill="#001122" stroke="#001122"></path><path d="M382.1 536L484.9 448L391.1 440Z" fill="#102430" stroke="#102430"></path><path d="M669.5 430L736.4 451L722.4 363Z" fill="#091c2a" stroke="#091c2a"></path><path d="M725.4 506L736.4 451L669.5 430Z" fill="#132731" stroke="#132731"></path><path d="M835.2 0L746.4 0L758.4 69Z" fill="#091c2a" stroke="#091c2a"></path><path d="M758.4 69L746.4 0L661.5 0Z" fill="#102430" stroke="#102430"></path><path d="M268.5 131L217.5 250L314.3 157Z" fill="#102430" stroke="#102430"></path><path d="M268.5 297L229.5 347L331.3 387Z" fill="#041726" stroke="#041726"></path><path d="M586.7 600L652.5 520L562.7 509Z" fill="#192c35" stroke="#192c35"></path><path d="M562.7 509L652.5 520L585.7 444Z" fill="#0b1f2c" stroke="#0b1f2c"></path><path d="M384.1 0L307.3 0L381.1 65Z" fill="#132731" stroke="#132731"></path><path d="M268.5 131L182.6 204L217.5 250Z" fill="#091c2a" stroke="#091c2a"></path><path d="M307.3 0L244.5 85L350.3 82Z" fill="#091c2a" stroke="#091c2a"></path><path d="M736.4 451L829.2 370L722.4 363Z" fill="#132731" stroke="#132731"></path><path d="M790.2 299L900 246L797.2 221Z" fill="#091c2a" stroke="#091c2a"></path><path d="M900 101L845.2 53L792.2 166Z" fill="#132731" stroke="#132731"></path><path d="M217.5 250L229.5 347L268.5 297Z" fill="#0b1f2c" stroke="#0b1f2c"></path><path d="M652.5 520L725.4 506L669.5 430Z" fill="#132731" stroke="#132731"></path><path d="M736.4 451L812.2 462L829.2 370Z" fill="#001122" stroke="#001122"></path><path d="M338.3 512L391.1 440L328.3 426Z" fill="#041726" stroke="#041726"></path><path d="M338.3 512L382.1 536L391.1 440Z" fill="#021424" stroke="#021424"></path><path d="M504.9 524L586.7 600L562.7 509Z" fill="#102430" stroke="#102430"></path><path d="M235.5 468L338.3 512L328.3 426Z" fill="#162933" stroke="#162933"></path><path d="M135.6 150L182.6 204L268.5 131Z" fill="#102430" stroke="#102430"></path><path d="M134.6 308L157.6 361L229.5 347Z" fill="#132731" stroke="#132731"></path><path d="M900 178L792.2 166L797.2 221Z" fill="#021424" stroke="#021424"></path><path d="M792.2 166L845.2 53L758.4 69Z" fill="#0e222e" stroke="#0e222e"></path><path d="M725.4 506L812.2 462L736.4 451Z" fill="#162933" stroke="#162933"></path><path d="M900 300L790.2 299L829.2 370Z" fill="#0b1f2c" stroke="#0b1f2c"></path><path d="M900 300L900 246L790.2 299Z" fill="#0b1f2c" stroke="#0b1f2c"></path><path d="M900 246L900 178L797.2 221Z" fill="#0b1f2c" stroke="#0b1f2c"></path><path d="M900 399L900 300L829.2 370Z" fill="#132731" stroke="#132731"></path><path d="M900 0L835.2 0L845.2 53Z" fill="#021424" stroke="#021424"></path><path d="M845.2 53L835.2 0L758.4 69Z" fill="#091c2a" stroke="#091c2a"></path><path d="M421.1 600L504.9 524L382.1 536Z" fill="#071a28" stroke="#071a28"></path><path d="M421.1 600L487.9 600L504.9 524Z" fill="#192c35" stroke="#192c35"></path><path d="M652.5 520L725.4 600L725.4 506Z" fill="#132731" stroke="#132731"></path><path d="M487.9 600L586.7 600L504.9 524Z" fill="#091c2a" stroke="#091c2a"></path><path d="M725.4 506L792.2 533L812.2 462Z" fill="#091c2a" stroke="#091c2a"></path><path d="M307.3 0L227.5 0L244.5 85Z" fill="#0b1f2c" stroke="#0b1f2c"></path><path d="M244.5 85L135.6 150L268.5 131Z" fill="#091c2a" stroke="#091c2a"></path><path d="M229.5 347L235.5 468L328.3 426Z" fill="#102430" stroke="#102430"></path><path d="M319.3 600L421.1 600L382.1 536Z" fill="#021424" stroke="#021424"></path><path d="M157.6 361L235.5 468L229.5 347Z" fill="#021424" stroke="#021424"></path><path d="M900 178L900 101L792.2 166Z" fill="#102430" stroke="#102430"></path><path d="M227.5 0L190.6 46L244.5 85Z" fill="#001122" stroke="#001122"></path><path d="M319.3 600L382.1 536L338.3 512Z" fill="#071a28" stroke="#071a28"></path><path d="M586.7 600L659.5 600L652.5 520Z" fill="#091c2a" stroke="#091c2a"></path><path d="M134.6 308L217.5 250L182.6 204Z" fill="#021424" stroke="#021424"></path><path d="M134.6 308L229.5 347L217.5 250Z" fill="#001122" stroke="#001122"></path><path d="M725.4 600L792.2 533L725.4 506Z" fill="#021424" stroke="#021424"></path><path d="M812.2 462L900 399L829.2 370Z" fill="#021424" stroke="#021424"></path><path d="M900 462L900 399L812.2 462Z" fill="#132731" stroke="#132731"></path><path d="M190.6 46L135.6 150L244.5 85Z" fill="#0b1f2c" stroke="#0b1f2c"></path><path d="M109.8 219L134.6 308L182.6 204Z" fill="#102430" stroke="#102430"></path><path d="M227.5 0L191.6 0L190.6 46Z" fill="#132731" stroke="#132731"></path><path d="M190.6 46L108.8 65L135.6 150Z" fill="#021424" stroke="#021424"></path><path d="M178.6 474L219.5 498L235.5 468Z" fill="#0b1f2c" stroke="#0b1f2c"></path><path d="M235.5 468L219.5 498L338.3 512Z" fill="#162933" stroke="#162933"></path><path d="M659.5 600L725.4 600L652.5 520Z" fill="#192c35" stroke="#192c35"></path><path d="M76.8 133L109.8 219L135.6 150Z" fill="#192c35" stroke="#192c35"></path><path d="M135.6 150L109.8 219L182.6 204Z" fill="#021424" stroke="#021424"></path><path d="M900 101L900 0L845.2 53Z" fill="#0e222e" stroke="#0e222e"></path><path d="M258.5 600L319.3 600L338.3 512Z" fill="#001122" stroke="#001122"></path><path d="M157.6 361L178.6 474L235.5 468Z" fill="#021424" stroke="#021424"></path><path d="M219.5 498L258.5 600L338.3 512Z" fill="#021424" stroke="#021424"></path><path d="M141.6 518L178.6 474L52.8 447Z" fill="#132731" stroke="#132731"></path><path d="M105.8 317L157.6 361L134.6 308Z" fill="#091c2a" stroke="#091c2a"></path><path d="M900 541L812.2 462L792.2 533Z" fill="#021424" stroke="#021424"></path><path d="M900 541L900 462L812.2 462Z" fill="#041726" stroke="#041726"></path><path d="M109.8 219L105.8 317L134.6 308Z" fill="#162933" stroke="#162933"></path><path d="M109.8 0L108.8 65L190.6 46Z" fill="#001122" stroke="#001122"></path><path d="M0 361L58.8 388L105.8 317Z" fill="#102430" stroke="#102430"></path><path d="M150.6 600L258.5 600L219.5 498Z" fill="#041726" stroke="#041726"></path><path d="M108.8 65L76.8 133L135.6 150Z" fill="#102430" stroke="#102430"></path><path d="M191.6 0L109.8 0L190.6 46Z" fill="#192c35" stroke="#192c35"></path><path d="M0 77L0 150L76.8 133Z" fill="#001122" stroke="#001122"></path><path d="M841.2 600L900 541L792.2 533Z" fill="#132731" stroke="#132731"></path><path d="M725.4 600L841.2 600L792.2 533Z" fill="#132731" stroke="#132731"></path><path d="M52.8 447L178.6 474L157.6 361Z" fill="#132731" stroke="#132731"></path><path d="M178.6 474L141.6 518L219.5 498Z" fill="#021424" stroke="#021424"></path><path d="M0 288L105.8 317L109.8 219Z" fill="#071a28" stroke="#071a28"></path><path d="M105.8 317L58.8 388L157.6 361Z" fill="#102430" stroke="#102430"></path><path d="M841.2 600L900 600L900 541Z" fill="#0b1f2c" stroke="#0b1f2c"></path><path d="M0 436L52.8 447L58.8 388Z" fill="#041726" stroke="#041726"></path><path d="M58.8 388L52.8 447L157.6 361Z" fill="#162933" stroke="#162933"></path><path d="M76.8 133L0 230L109.8 219Z" fill="#021424" stroke="#021424"></path><path d="M0 150L0 230L76.8 133Z" fill="#192c35" stroke="#192c35"></path><path d="M59.8 600L150.6 600L141.6 518Z" fill="#132731" stroke="#132731"></path><path d="M141.6 518L150.6 600L219.5 498Z" fill="#192c35" stroke="#192c35"></path><path d="M0 230L0 288L109.8 219Z" fill="#041726" stroke="#041726"></path><path d="M0 77L76.8 133L108.8 65Z" fill="#0b1f2c" stroke="#0b1f2c"></path><path d="M0 288L0 361L105.8 317Z" fill="#162933" stroke="#162933"></path><path d="M0 0L0 77L108.8 65Z" fill="#0e222e" stroke="#0e222e"></path><path d="M52.8 447L52.8 526L141.6 518Z" fill="#102430" stroke="#102430"></path><path d="M0 498L52.8 526L52.8 447Z" fill="#001122" stroke="#001122"></path><path d="M0 361L0 436L58.8 388Z" fill="#041726" stroke="#041726"></path><path d="M109.8 0L0 0L108.8 65Z" fill="#091c2a" stroke="#091c2a"></path><path d="M0 436L0 498L52.8 447Z" fill="#071a28" stroke="#071a28"></path><path d="M52.8 526L59.8 600L141.6 518Z" fill="#071a28" stroke="#071a28"></path><path d="M0 600L59.8 600L52.8 526Z" fill="#041726" stroke="#041726"></path><path d="M0 498L0 600L52.8 526Z" fill="#0e222e" stroke="#0e222e"></path></g></svg>